<?xml version="1.0" encoding="utf-8"?>
<svg xmlns="http://www.w3.org/2000/svg" id="Capa_1" data-name="Capa 1" viewBox="0 0 100 100">
    <defs>
        <style>.cls-1{fill:#142a3d;}</style>
    </defs>
    <path class="cls-1" d="M79.54,77.63l-.14-.06.1-.06s0-.1,0-.08l-.23.07c-2.56-1-5.47-.17-7.82-1.86-.12-.08-.24.06-.22.17a2.93,2.93,0,0,0,.25.79l-.07.91c-.9-.12-1.79-.22-2.63-.27C63.57,77,58.19,77,53,77.24c-2.55.12-5.08.46-7.63.62a68.46,68.46,0,0,1-7.84-.25c-2.63-.12-5.27-.13-7.91-.14-1.71,0-3.55-.25-5.19.32a1,1,0,0,0,.08-.32c0-3.7.06-7.4.06-11.1a.3.3,0,0,0,.5.12c4.31-4,8.86-7.81,13.23-11.78,1.13,1.79,2.94,3.84,4.93,4.34,2.41.6,3.76-3.22,4.67-4.69,1.15-1.88,2-4,3-6s2.19-5,4.12-6.22c1.4-.87,4.64,7.83,7.33,7.69,2.18-.11,3.29-3.56,3.9-5.16s.94-3,1.37-4.45a6.28,6.28,0,0,0,1,0c0,.77,1.18.85,1.4.12a6.78,6.78,0,0,0,.24-2.1,24.72,24.72,0,0,0,.39-4.9c.09-.17.18-.34.26-.52a.25.25,0,0,0-.35-.34c0-.06,0-.12,0-.18a.2.2,0,0,0-.36-.05l-.06.15a.51.51,0,0,0-.54.21c-1.38,2.15-3.25,4-4,6.52a.69.69,0,0,0,.48.83l.4.09L66.2,41c-.42,1.45-2.38,9.27-4.81,7.34-2-1.55-3.11-7.44-6.11-7.4-1.29,0-2.1,1.28-2.77,2.23A46.18,46.18,0,0,0,49,49.58c-.87,1.77-1.69,3.54-2.65,5.26S44.07,59,41.75,57a14.57,14.57,0,0,1-2.86-3.31.53.53,0,0,0-.82-.11c-4.49,4.17-9.18,8.09-13.41,12.53l-.07.11c0-5.48,0-11-.18-16.44-.12-4.49-.25-9-.69-13.49-.23-2.25-.4-4.7-.73-7.11a7.83,7.83,0,0,1,1.41.14.49.49,0,0,0,.55-.72c-.81-1.52-1.71-3.11-2.43-4.75a20.71,20.71,0,0,1-.85-3.11.43.43,0,0,0-.28-.35,8.55,8.55,0,0,1-.14-.86.11.11,0,0,0-.22,0c0,.28,0,.55,0,.83a.52.52,0,0,0-.45.52A69.36,69.36,0,0,1,20.07,29a.56.56,0,0,0,.71.54c.28-.09.55-.17.81-.23.21,2.34.5,4.69.61,7,.22,4.5.54,9,.69,13.49.29,9.25.21,18.5.29,27.74a.66.66,0,0,0,.81.64c-.31.49.06,1.3.73,1,2-.74,4.59-.33,6.67-.33,2.65,0,5.3,0,8,.18,5.22.28,10.25-.46,15.45-.62,4.92-.15,10.06-.26,15,.06.48,0,1,.08,1.52.13l-.06.75-.07.09a.9.9,0,0,0-.1.39.79.79,0,0,0,.78.78c2.47.26,5.13-1,7.52-1.5A.8.8,0,0,0,79.54,77.63ZM22.84,28.08a.28.28,0,0,1,0-.09l.12.09ZM72.18,77.44a.76.76,0,0,0-.21,0c0-.07,0-.14,0-.21A1.24,1.24,0,0,0,72.18,77.44Z"></path>
</svg>